<svg xmlns="http://www.w3.org/2000/svg" width="71.824" height="71.824" viewBox="0 0 71.824 71.824"><defs><style>.a{opacity:0.281;}.b{fill:#efefef;}.c{fill:#e8594f;}.d{fill:#61c7d2;}.e{fill:#231f20;}</style></defs><g class="a" transform="matrix(0.985, 0.174, -0.174, 0.985, 13.197, -13.787)"><path class="b" d="M70.084,51.823c0,.016,0,.032,0,.048a5.154,5.154,0,0,1-5.019,5.246H15.858a5.083,5.083,0,0,1-4.9-4.157,13.485,13.485,0,0,1-.29-2.675,9.314,9.314,0,0,1,9.042-9.565,8.6,8.6,0,0,1,1.647.159A6.938,6.938,0,0,1,28.1,34.4a6.4,6.4,0,0,1,2.3.424,15.069,15.069,0,0,1,14.01-10.159c8.293,0,15.016,7.112,15.016,15.884a16.8,16.8,0,0,1-.1,1.882,8.539,8.539,0,0,1,1.72-.174A9.314,9.314,0,0,1,70.084,51.823Z" transform="translate(-9.375 -9.3)"/><ellipse class="c" cx="3.229" cy="3.416" rx="3.229" ry="3.416" transform="translate(21.958 67.802)"/><g transform="translate(4.682 55.504)"><ellipse class="d" cx="3.229" cy="3.416" rx="3.229" ry="3.416" transform="translate(28.901 12.298)"/><ellipse class="d" cx="3.229" cy="3.416" rx="3.229" ry="3.416"/></g><ellipse class="c" cx="3.229" cy="3.416" rx="3.229" ry="3.416" transform="translate(50.859 55.504)"/><g transform="translate(0 14)"><path class="e" d="M47.833,182a5.328,5.328,0,0,0-5.167,5.466,8.967,8.967,0,0,0,.168,1.636,1.312,1.312,0,0,0,1.265,1.1,1.22,1.22,0,0,0,.256-.027,1.366,1.366,0,0,0,1.011-1.609,6.169,6.169,0,0,1-.118-1.1,2.664,2.664,0,0,1,2.583-2.733,1.369,1.369,0,0,0,0-2.733Z" transform="translate(-37.499 -160.478)"/><path class="e" d="M417.292,194a1.369,1.369,0,0,0,0,2.733,2.646,2.646,0,0,1,2.581,2.618,1.327,1.327,0,0,0,1.29,1.31h.054a1.338,1.338,0,0,0,1.237-1.422A5.293,5.293,0,0,0,417.292,194Z" transform="translate(-365.625 -170.941)"/><path class="e" d="M213.25,56.666a11.246,11.246,0,0,0-10.4,7.538,1.392,1.392,0,0,0,.739,1.767,1.271,1.271,0,0,0,1.67-.782,8.639,8.639,0,0,1,7.986-5.79,8.825,8.825,0,0,1,8.557,9.052,1.294,1.294,0,1,0,2.583,0C224.391,61.953,219.393,56.666,213.25,56.666Z" transform="translate(-178.214 -51.201)"/><path class="e" d="M51.667,31.592q-.163,0-.326.006,0-.174,0-.347C51.344,21.739,44.028,14,35.036,14a15.6,15.6,0,0,0-9.324,3.1,17.019,17.019,0,0,0-5.43,6.8,7.668,7.668,0,0,0-1.554-.158,8.125,8.125,0,0,0-7.8,6.337q-.3-.018-.592-.018C4.635,30.055,0,34.959,0,40.986a14.957,14.957,0,0,0,.32,2.966,6.428,6.428,0,0,0,6.162,5.232h8.372v8.369H12.243a4.57,4.57,0,0,0-4.332-3.416,4.79,4.79,0,0,0,0,9.565,4.57,4.57,0,0,0,4.332-3.416h3.9a1.331,1.331,0,0,0,1.292-1.366V49.184H23.9V66.635a4.762,4.762,0,0,0-3.229,4.582A4.662,4.662,0,0,0,25.187,76a4.662,4.662,0,0,0,4.521-4.782,4.762,4.762,0,0,0-3.229-4.582V49.185h9.042V66.635a4.762,4.762,0,0,0-3.229,4.582,4.528,4.528,0,1,0,9.042,0A4.762,4.762,0,0,0,38.1,66.635V49.185h6.459V58.92a1.331,1.331,0,0,0,1.292,1.366h3.9A4.57,4.57,0,0,0,54.089,63.7a4.79,4.79,0,0,0,0-9.565,4.57,4.57,0,0,0-4.332,3.416H47.146V49.185h8.543A6.493,6.493,0,0,0,62,42.579v-.055C62,36.5,57.365,31.592,51.667,31.592ZM7.911,60.97a2.053,2.053,0,0,1,0-4.1,2.053,2.053,0,0,1,0,4.1Zm46.177-4.1a2.053,2.053,0,1,1-1.937,2.05A2,2,0,0,1,54.089,56.871ZM27.125,71.218a1.941,1.941,0,1,1-1.938-2.05A2,2,0,0,1,27.125,71.218Zm11.625,0a1.941,1.941,0,1,1-1.938-2.05A2,2,0,0,1,38.75,71.218ZM59.417,42.565a3.827,3.827,0,0,1-3.727,3.887H6.482a3.792,3.792,0,0,1-3.639-3.083,12.028,12.028,0,0,1-.26-2.383,7.993,7.993,0,0,1,7.75-8.2,7.414,7.414,0,0,1,1.413.136,1.239,1.239,0,0,0,1.012-.253,1.387,1.387,0,0,0,.508-.96,5.589,5.589,0,0,1,5.463-5.242,5.163,5.163,0,0,1,1.857.342,1.272,1.272,0,0,0,1.645-.792,13.853,13.853,0,0,1,12.8-9.285c7.567,0,13.724,6.513,13.724,14.518a15.456,15.456,0,0,1-.1,1.721,1.411,1.411,0,0,0,.4,1.163,1.244,1.244,0,0,0,1.126.34,7.343,7.343,0,0,1,1.473-.149,7.993,7.993,0,0,1,7.75,8.2v.042Z" transform="translate(0 -14)"/></g></g></svg>