<svg xmlns="http://www.w3.org/2000/svg" width="82.393" height="82.393" viewBox="0 0 82.393 82.393"><defs><style>.a{opacity:0.32;}</style></defs><g class="a" transform="translate(22.683 -1.641) rotate(25)"><g transform="translate(3.883)"><g transform="translate(7.085 16.27)"><path d="M71.332,93.322H43.842a1.347,1.347,0,1,1,0-2.693h27.49a1.347,1.347,0,1,1,0,2.693Z" transform="translate(-42.465 -90.629)"/></g><g transform="translate(7.085 22.304)"><path d="M64.77,126.939H43.842a1.347,1.347,0,1,1,0-2.693H64.77a1.347,1.347,0,1,1,0,2.693Z" transform="translate(-42.465 -124.246)"/></g><g transform="translate(7.085 40.409)"><path d="M50.769,227.789H43.842a1.347,1.347,0,1,1,0-2.693h6.927a1.347,1.347,0,1,1,0,2.693Z" transform="translate(-42.465 -225.096)"/></g><g transform="translate(7.085 46.444)"><path d="M47.766,261.406H43.842a1.347,1.347,0,1,1,0-2.693h3.924a1.347,1.347,0,1,1,0,2.693Z" transform="translate(-42.465 -258.713)"/></g><path d="M64.4,6.244l-3.142-2.29a3.729,3.729,0,0,0-2.741-.678A3.685,3.685,0,0,0,56.088,4.69h0L48.3,15.01V4.762a1.362,1.362,0,0,0-1.377-1.346H41.213V1.346a1.378,1.378,0,0,0-2.755,0v2.07H34.34V1.346a1.378,1.378,0,0,0-2.755,0v2.07H27.468V1.346a1.378,1.378,0,0,0-2.755,0v2.07H20.6V1.346a1.378,1.378,0,0,0-2.755,0v2.07H13.723V1.346a1.378,1.378,0,0,0-2.755,0v2.07H5.26A1.362,1.362,0,0,0,3.883,4.762V60.654A1.362,1.362,0,0,0,5.26,62H46.921A1.362,1.362,0,0,0,48.3,60.654V33.774L65.151,11.3h0A3.562,3.562,0,0,0,64.4,6.244ZM45.544,59.307H6.638V6.109h4.331V8.178a1.378,1.378,0,0,0,2.755,0V6.109h4.118V8.178a1.378,1.378,0,0,0,2.755,0V6.109h4.118V8.178a1.378,1.378,0,0,0,2.755,0V6.109h4.118V8.178a1.378,1.378,0,0,0,2.755,0V6.109h4.118V8.178a1.378,1.378,0,0,0,2.755,0V6.109h4.33V18.7l-7.183,9.634H12.346a1.347,1.347,0,1,0,0,2.693H36.353L28.521,41.538h0a1.328,1.328,0,0,0-.2.408l-3.15,10.532H12.346a1.347,1.347,0,1,0,0,2.693H26.221a1.4,1.4,0,0,0,.726-.214l10.3-6.5a1.364,1.364,0,0,0,.355-.325l7.947-10.657V59.307ZM30.4,44.562l3.677,2.681-5.522,3.488Zm5.8.867-4.647-3.387L53.277,12.9l4.647,3.387Zm23.358-31.3-4.647-3.387,1.483-1.944,4.647,3.388Zm3.385-4.437h0l-.254.333L58.041,6.634,58.3,6.3h0a.937.937,0,0,1,.617-.36.949.949,0,0,1,.7.173L62.752,8.4A.905.905,0,0,1,62.943,9.687Z" transform="translate(-3.883)"/></g></g></svg>